# xmcd CD database file
# Copyright (C) 1993-1998 Ti Kan
# 
# Track frame offsets:
#     150
#     16442
#     32052
#     57997
#     73615
#     87507
#     101522
#     117232
#     131782
#     148562
#     163445
#     179057
# 
# Disc length: 2565 seconds
# 
# Revision: 1
# Processed by: cddbd v1.4b41PL1 Copyright (c) Steve Scherf et al.
# Submitted via: DiscPlay 4.0.4
# 
DISCID=b40a030c
DTITLE=Joy Eden Harrison - Angel Town
DYEAR=1900
DGENRE=
TTITLE0=Where Have You Gone Jimmy Dean?
TTITLE1=Angel Town
TTITLE2=Love Beneath Your Lies
TTITLE3=Marlene
TTITLE4=I'll Be All Right
TTITLE5=Yesterday's A Thief
TTITLE6=Grapefruit Moon
TTITLE7=Johnny Midnight
TTITLE8=Silent Movie Love
TTITLE9=First Kisses
TTITLE10=The Soldiers' Dance
TTITLE11=I Fall To Pieces
EXTD=Submitted by ecto@home.com\n\nProduced by Buddy Blue\nBizarre/Planet Re
EXTD=cords\n213-935-4444
EXTT0=
EXTT1=
EXTT2=
EXTT3=
EXTT4=
EXTT5=
EXTT6=
EXTT7=
EXTT8=
EXTT9=
EXTT10=
EXTT11=
PLAYORDER=
